/* XPM */
static char *_a91af83311a4436e0d5a9a5e47741dc0SVjR0xhrRhXqwcR[] = {
/* columns rows colors chars-per-pixel */
"50 50 154 2 ",
"   c white",
".  c #F9FFFA",
"X  c MintCream",
"o  c #F4FFFF",
"O  c #FFFCFF",
"+  c #F5FBFF",
"@  c #FFFFEF",
"#  c #FBFFFF",
"$  c #FFFFFA",
"%  c #FFF8FF",
"&  c #FFF9FB",
"*  c #F5FFF3",
"=  c #F8FFFF",
"-  c #FFFFF5",
";  c #FFFCFA",
":  c #FBFBF9",
">  c #FCFCFE",
",  c #FBFFF3",
"<  c #E4D9C3",
"1  c #8790B4",
"2  c #E8FEF5",
"3  c #FEFED6",
"4  c #AE4003",
"5  c black",
"6  c #01ADF5",
"7  c #FBFFF8",
"8  c #FFBE68",
"9  c #060001",
"0  c #030001",
"q  c #002F94",
"w  c #BBFCFD",
"e  c #FDFCCB",
"r  c #010005",
"t  c #01010D",
"y  c #230301",
"u  c #FFFCF6",
"i  c #FFF9F7",
"p  c #BB4F02",
"a  c #00125F",
"s  c #B28A5E",
"d  c #0E0101",
"f  c #FFFCF2",
"g  c #FFCC79",
"h  c #370201",
"j  c #008CE2",
"k  c #FEFCB9",
"l  c #8B1E02",
"z  c #002B8B",
"x  c #C5FDFE",
"c  c #010466",
"v  c #8EFDFE",
"b  c #F6FDF9",
"n  c #FEA341",
"m  c #2DB6FC",
"M  c #170101",
"N  c #008ADA",
"B  c #982801",
"V  c #00439B",
"C  c #FFFEE5",
"Z  c #9DFAFC",
"A  c #F7A452",
"S  c #08BFFB",
"D  c #F0FFF9",
"F  c #F0E3D2",
"G  c #E1C7B5",
"H  c #B0A687",
"J  c #6E6456",
"K  c #411C08",
"L  c #071A20",
"P  c #244962",
"I  c #67718A",
"U  c #A5AFB3",
"Y  c #C6CCD2",
"T  c #E2F1FC",
"R  c #EDFFFF",
"E  c #FDD39E",
"W  c #752705",
"Q  c #19170F",
"!  c #000354",
"~  c #92EAFD",
"^  c #EA8A22",
"/  c #191819",
"(  c #046CA5",
")  c #D2FCFE",
"_  c #0C1912",
"`  c #053D6D",
"'  c #92AEAB",
"]  c #B8D5E1",
"[  c #EAE5EB",
"{  c #EBE2E1",
"}  c #D2B8A5",
"|  c #C2917E",
" . c #6C583D",
".. c #432A20",
"X. c #010C70",
"o. c #D4802B",
"O. c #93CFEA",
"+. c #FFF8DE",
"@. c #E29C45",
"#. c #010538",
"$. c #93D9F9",
"%. c #E38D35",
"&. c #01144F",
"*. c #F4FDE2",
"=. c #CE8D47",
"-. c #000645",
";. c #F2892B",
":. c #82EBFC",
">. c #01A4EC",
",. c #9F2E00",
"<. c #1ED3FB",
"1. c #CB5C01",
"2. c #F49837",
"3. c #75FFFC",
"4. c #E78B11",
"5. c #D36C04",
"6. c #010222",
"7. c #5AD5FE",
"8. c #004CA7",
"9. c #2A2F48",
"0. c #FFD683",
"q. c #430301",
"w. c #01B2FF",
"e. c #810B03",
"r. c #008AD2",
"t. c #F3B260",
"y. c #034888",
"u. c #ADD4F1",
"i. c #750C01",
"p. c #FFDC8F",
"a. c #F5BD7C",
"s. c #541703",
"d. c #0D5D8E",
"f. c #ADE7FC",
"g. c #005CB6",
"h. c #5683A0",
"j. c #033256",
"k. c #7BC6F8",
"l. c #FEF5D3",
"z. c #026DB8",
"x. c #A04B0F",
"c. c #75BFE3",
"v. c #FFECC7",
"b. c #AC7C46",
"n. c #63A1D0",
"m. c #E6FEFF",
"M. c #B56726",
"N. c #4BD6FD",
"B. c #DDFDFE",
"V. c #FEE9B8",
"C. c #9D6534",
"Z. c #F9D6B1",
"A. c #A18473",
"S. c #9FE8FC",
/* pixels */
"            .       X o O O   + @ . # o $ %   X & * $ O $ X $ # * % % # = $ o - ; . . $ % o         ",
"                                              $   #     $ ;                                         ",
"                                            ;     # :   $ O                                         ",
"                                              > $ ;   O ,                                           ",
"                                            # >   ; $ O -                                           ",
"                                                :       $ >                                         ",
"                                            : &   #   #                                             ",
"                                            O @ > # = #   $                                         ",
"                                            % < 1 2 o > , $                                         ",
"                              X O X , O +   3 4 5 6 = & . O                                         ",
"                            7 % O >   % * $ 8 9 0 q w % $ $                                         ",
"                            $   O O O # - e 4 r 5 t 6 , $ +                                         ",
"                            O X   O ; # # 8 y 0 5 5 q w u .                                         ",
"                            #   #   $ i @ p 5 a s d r 6 f %                                         ",
"                            X O # # u X g h t j k l 5 z x O                                         ",
"                              $ #   u 3 p r c v b n 9 t m X                                         ",
"                            O   , %   g M 5 N O # e B 5 V x                                         ",
"            & > u ; $ ;   : ; O $   C 4 0 c Z : #   A 5 t S ; # O X =   =   - ;   * % O X O         ",
"            # O =   D = F G H J K M 0 0 5 N > O = 7 e l r 0 r L P I U Y T u O O R     2 o $         ",
"            o   E W Q 0 5 5 r 0 0 5 5 r ! ~ o = ; O u ^ 5 9 5 r r 5 5 5 5 r / ( ) 7 $ 7 % i         ",
"            -   n 9 9 0 5 r r _ ` I ' ] [ X D O $ D O @ { } |  ...9 r d 0 r r X.w - i . b O         ",
"            $ % C o.5 0 a O.R $ . & 2 #   O . % i O O =   O O O % $ +.@.9 5 #.$.> O   o   :         ",
"            > o - . %.0 0 a ~ # i &   O R -   % X   . O ; % - # , u A d 5 &.O.o o O ; O # $         ",
"              &   O *.^ 9 5 a ~     > % $ O # . D # O ,   7 # f O @.d r ! $.= # % # & $ # X         ",
"            * O # > $ i ^ r 9 &.~ u X $ = $ O $ -   O X O   # - @.d 5 c ~ -   f - $ # - O ;         ",
"            # O O $ > O +.=.M t -.$.. = $ $ $ O   > O   = # i ;.9 5 c :.o -                         ",
"            b   $ - # = O +.@.M 5 &.$.R > O -   :   . -   - %.0 0 X.~ #   -                         ",
"                O : . o = O @ @.d 0 >.R * % u . , O > $   +.,.0 a :.- O $ O                         ",
"            # > O O   . # > o 8 9 t <.; # % # > % $ X O f # 1.r q w ,   % $                         ",
"            # $ O O O : - $ - 2.r ! 3.O @ $ # >   % % O # $ 4.5 c v ; o -                           ",
"              $ - O O O $ O ; 5.0 z x O # o - # . $ O X X   8 d 6.7.D .   O                         ",
"            O $ $ $ >     O C 4 5 8.b % + O *.| 9.O.X > R O 0.q.0 w., O   >                         ",
"            O O   # #   b # k e.5 r.# D i t.q.5 5 t y.u.% $ k i.5 N &   i o                         ",
"                            p.q.r 6 - a.s.5 r 9 0 r 0 r d.f.3 ,.0 g.X $   ;                         ",
"                            8 9 6.h.s.5 5 5 j.k.l.=.M 0 9 5 z.x.5 z w O f #                         ",
"                        $ $ n 5 r 5 0 5 -.c.R O - $ v.b.M 5 r 0 r ! 3.2 # #                         ",
"                      $ $ $ 1.5 0 5 #.n.m.#   % 7 . O O F M.9 9 5 6.N.O f X                         ",
"                      $ $ $ ,.5 6.n.B.# @ o O O O O > - O # V.C.9 9 S %   7                         ",
"                        $ $ a.n.) ; ; * o   #   7 $   :   = * o Z.A.S.% # #                         ",
"                            O * % R ; # % O O + # . o o ; @ . ; O $   #   o                         ",
"            $                 = -   #   % *   $ u   & O = # & o     $ 7   ;                         ",
"                                                                                                    ",
"                                                                                                    ",
"                                                                                                    ",
"                                                                                                    ",
"                                                                                                    ",
"                                                                                                    ",
"                                                                                                    ",
"                                                                                                    ",
"            $ ; $ #   7   # $ # =     O O #         # = + # $ f $   o   O $                         "
};
