/* XPM */
static char *_51df627e7c941aab845a23d3b518405drrhGVomH03WXWr0[] = {
/* columns rows colors chars-per-pixel */
"50 50 123 2 ",
"   c white",
".  c #FFFFFA",
"X  c #FFFFF5",
"o  c #FBFFFF",
"O  c #F4FFFF",
"+  c #FFFCFF",
"@  c #FFFCF6",
"#  c #FFFCFA",
"$  c #FCFCFE",
"%  c #FBFFF3",
"&  c #F9FFFA",
"*  c #FBFBF9",
"=  c #FFFCF2",
"-  c #FFF8FF",
";  c #FFFFEF",
":  c #F5FBFF",
">  c #F8FFFF",
",  c #FFF9FB",
"<  c #E4D9C3",
"1  c #8790B4",
"2  c #F0FFF9",
"3  c #FBFFF8",
"4  c #FFF8DE",
"5  c #AE4003",
"6  c black",
"7  c #01A4EC",
"8  c MintCream",
"9  c #FFBE68",
"0  c #170101",
"q  c #010005",
"w  c #002B8B",
"e  c #C5FDFE",
"r  c #FEFED6",
"t  c #A04B0F",
"y  c #010216",
"u  c #01ADF5",
"i  c #0E0101",
"p  c #030001",
"a  c #002F94",
"s  c #FFFEE5",
"d  c #BB4F02",
"f  c #EDFFFF",
"g  c #FFCC79",
"h  c #230301",
"j  c #060001",
"k  c #F6FDF9",
"l  c #FEF5D3",
"z  c #47B2E4",
"x  c #FEF6EB",
"c  c #FFD683",
"v  c #00439B",
"b  c #DDFDFE",
"n  c #F5FFF3",
"m  c #01010D",
"M  c #32ABDE",
"N  c #EBE2E1",
"B  c #E1C7B5",
"V  c #B0A687",
"C  c #6E6456",
"Z  c #432A20",
"A  c #191819",
"S  c #244962",
"D  c #67718A",
"F  c #92AEAB",
"G  c #C6CCD2",
"H  c #E2F1FC",
"J  c #FDD39E",
"K  c #5B310C",
"L  c #0C1912",
"P  c #191B27",
"I  c #3588B7",
"U  c #D2FCFE",
"Y  c #FEA341",
"T  c #010C70",
"R  c #AEFBFD",
"E  c #D4802B",
"W  c #000645",
"Q  c #93D9F9",
"!  c #E08C24",
"~  c #7BC6F8",
"^  c #E8FEF5",
"/  c #E38D35",
"(  c #01144F",
")  c #00125F",
"_  c #92EAFD",
"`  c #E29C45",
"'  c #9FE8FC",
"]  c #CE8D47",
"[  c #000354",
"{  c #BBFCFD",
"}  c #F49837",
"|  c #00005F",
" . c #83FFFE",
".. c #DE7A0C",
"X. c #00022C",
"o. c #68D2FC",
"O. c #01B2FF",
"+. c #FEFCB9",
"@. c #810B03",
"#. c #008AD2",
"$. c #FFDC8F",
"%. c #520401",
"&. c #005EB0",
"*. c #033256",
"=. c #75BFE3",
"-. c #E6FEFF",
";. c #BD7040",
":. c #75FFFC",
">. c #D36C04",
",. c #071A20",
"<. c #63A1D0",
"1. c #FEE9B8",
"2. c #9D6534",
"3. c #010222",
"4. c #4BD6FD",
"5. c #9F2E00",
"6. c #44A3C9",
"7. c #FCDDC4",
"8. c #F5BD7C",
"9. c #6B9BB3",
"0. c #FFF9F7",
"q. c #788B9F",
"w. c #BCE6FE",
/* pixels */
"        . X   o   o O +                       @ o + o . .   + + . # $ o                             ",
"                                          $   % +   #                                               ",
"                                          $ &   $ +                                                 ",
"                                              *   .   $                                             ",
"                                        . $ + @   . . +                                             ",
"                                        .   +   $ &                                                 ",
"                                        o . = - & O o                                               ",
"                                        o # @ ; : O > .                                             ",
"                                        o + , < 1 2 3                                               ",
"                        # +   %   +     > + 4 5 6 7 > .   8 % + & 3 -                               ",
"                            & .     . . % > 9 0 q w e - + o . + o 3 + *                             ",
"                        o 8     + + X X . r t 6 6 y u X # +   + o   + &                             ",
"                        8 o   + +       + 9 i p 6 p a e . +   $ + + + o                             ",
"                            + + . o > $ s d p 6 6 p q u f *       + + o                             ",
"                        . + -   3 >   + g h j q q q 6 a e 8 @   3                                   ",
"                        o   - . k o + l d p 6 6 q 6 6 y z f @   3     +                             ",
"                        >   + . & + x c h 6 j p 6 j 6 6 v b # + 3 o o .                             ",
"        #   . k + n o o   #   . X O x d 6 6 6 6 6 6 6 6 m M O @ O   o     + & . + . o >             ",
"        O = + - + + X = N B V C Z i p j 6 6 6 6 6 6 6 6 p q q A S D F G H $ o + O > @               ",
"        & + k . J K L p p p j 6 6 q p q 6 6 6 6 6 6 6 6 j p 6 6 q q q q p q P I U   @ +             ",
"        +   & - Y j p 6 q q 6 p q 6 6 6 6 6 6 6 6 6 6 6 6 6 6 j p 6 j 6 p 6 q T R   3 O             ",
"        + + > - s E p p 6 6 6 6 p 6 6 6 6 6 6 6 6 6 6 6 6 p p p 6 6 j q 6 j W Q $ f o o             ",
"          : o f @ = ! j 6 p q 6 6 p p p 6 6 6 6 6 6 6 6 j p 6 6 6 6 6 p q W ~ O 8 o , X             ",
"        8 X #   . 3 ^ / j q p p p p p q 6 6 6 6 6 6 6 6 6 6 6 q q 6 6 q ( Q % + # . . +             ",
"        o - + o . o + = / j 6 p 6 6 6 6 6 6 6 6 6 6 6 6 6 6 p p 6 q j ) _ 8 # o   -   O             ",
"                        n ` 0 p 6 6 6 6 6 6 6 6 6 6 6 6 6 p 6 p 6 q ) '                             ",
"                        . = ] j p 6 q 6 6 6 6 6 6 6 6 6 6 q 6 6 q ( _ >                             ",
"                        o % . Y j 6 p q 6 6 6 6 6 6 6 6 p 6 6 p [ _ 8 o                             ",
"                        8   > 9 j 6 6 p 6 6 6 6 6 6 6 6 6 p j 6 a { n +                             ",
"                        + X = } j 6 6 p 6 6 6 6 6 6 6 6 6 p 6 6 |  .  +                             ",
"                        - , . ..6 p q p 6 6 6 6 6 6 6 6 j 6 6 j X.o.o                               ",
"                        + % = 5 q p 6 q 6 6 6 6 6 6 6 6 6 q 6 6 6 O.- 3                             ",
"                        o X +.@.p p 6 6 6 6 6 6 6 6 6 6 p p 6 6 6 #.  X                             ",
"                        . - $.%.p 6 6 p p 6 6 6 6 6 6 j 6 6 p q q &.n o                             ",
"                        3 . 9 j q 6 j p j 6 *.=.l ] h q q 6 p 6 6 w { ,                             ",
"                        >   } j q q 6 6 ( =.-.. + . l ;.h 6 6 6 p | :.                              ",
"                        @ n >.q 6 j ,.<.f + , o >   @ , 1.2.j 6 6 3.4.+                             ",
"                        X 4 5.6 X.6.H >   X . o $ +   . # 2 7.2.i 6 O.                              ",
"                          + 8.9.U o   + X $ + 0.> o . k O # + 0.7.q.w.+                             ",
"                        & X   > > + + +     &   -   n   o o + + -   3 +                             ",
"                        + $ n , = o # 3 X $       +   > =   3 8 . + f +                             ",
"                                                                                                    ",
"                                                                                                    ",
"                                                                                                    ",
"                                                                                                    ",
"                                                                                                    ",
"                                                                                                    ",
"                                                                                                    ",
"                                                                                                    ",
"        # + O & $ # +   $     .     > > # .   $     .   . > @ o O + - #                             "
};
