/* XPM */
static char *_300dc13cb3840e9c0c4cb9fb6bccffa9RpSNLESn9N5eXAE[] = {
/* columns rows colors chars-per-pixel */
"50 50 134 2 ",
"   c black",
".  c #060000",
"X  c #000005",
"o  c #00000E",
"O  c #100000",
"+  c #1E0000",
"@  c #121006",
"#  c #00001C",
"$  c #01131A",
"%  c #2A0000",
"&  c #340000",
"*  c #000028",
"=  c #000135",
"-  c #01203E",
";  c #410000",
":  c #6E0001",
">  c #5B2D04",
",  c #41251A",
"<  c #000143",
"1  c #000C4E",
"2  c #000053",
"3  c #000A5F",
"4  c #002E55",
"5  c #000066",
"6  c #000470",
"7  c #002169",
"8  c #1F4762",
"9  c #6E6455",
"0  c #646563",
"q  c #820300",
"w  c #8C1800",
"e  c #A72500",
"r  c #AF3E00",
"t  c #A14A06",
"y  c #BC4E00",
"u  c #B66721",
"i  c #BE703E",
"p  c #CC5C00",
"a  c #D46C00",
"s  c #EF8A14",
"d  c #EB8B1C",
"f  c #D58127",
"g  c #F28A27",
"h  c #E48E32",
"j  c #F49934",
"k  c #FEA43F",
"l  c #CF8E45",
"z  c #E39D43",
"x  c #F7A551",
"c  c #FFB35B",
"v  c #FFBF68",
"b  c #F5BE7D",
"n  c #FFCD7A",
"m  c #002B80",
"M  c #00278C",
"N  c #002B95",
"B  c #004689",
"V  c #005AA6",
"C  c #006CA6",
"Z  c #006DB9",
"A  c #67728B",
"S  c #6B9CB4",
"D  c #008BD3",
"F  c #00A8D9",
"G  c #00A5ED",
"H  c #00B5EA",
"J  c #00AEF5",
"K  c #00B3FF",
"L  c #29B7FC",
"P  c #63A2D1",
"I  c #01C0FB",
"U  c #18D4FB",
"Y  c #36D0FD",
"T  c #76C0E4",
"R  c #7CC7F8",
"E  c #79DAFA",
"W  c #B1A788",
"Q  c #8891B5",
"!  c #A6B0B4",
"~  c #D3B9A6",
"^  c #FFDD90",
"/  c #FDD49F",
"(  c #E2C8B6",
")  c #FFF0A9",
"_  c #FEFCBA",
"`  c #98C4DD",
"'  c #94D0EB",
"]  c #94DAF9",
"[  c #AED5F1",
"{  c #83ECFC",
"}  c #93EBFD",
"|  c #84FFFE",
" . c #A0E9FC",
".. c #AEE8FC",
"X. c #BCFCFD",
"o. c #E5DAC4",
"O. c #FCDEC5",
"+. c #FDFCCC",
"@. c #F0E4D3",
"#. c #FDECDE",
"$. c #FEF5D4",
"%. c #FEFED7",
"&. c #FFF8DF",
"*. c #D4E2E1",
"=. c #C6FDFE",
"-. c #D3FCFE",
";. c #DEFDFE",
":. c #EBE6EC",
">. c #F4FDE3",
",. c #FFFEE6",
"<. c #FFFFEF",
"1. c #E9FEF5",
"2. c #E3F1FC",
"3. c #E7FEFF",
"4. c #EDFFFF",
"5. c #F5FFF3",
"6. c #FBFFF3",
"7. c #FFFCF2",
"8. c #FFF9F7",
"9. c #FFFFF5",
"0. c #F0FFF9",
"q. c #F6FDF9",
"w. c #F5FBFF",
"e. c #F4FFFF",
"r. c #FBFBF9",
"t. c #FFF9FB",
"y. c #FBFFF8",
"u. c #FFFCFA",
"i. c #FFFFFA",
"p. c #FFF8FF",
"a. c #FBFFFF",
"s. c #FCFCFE",
"d. c #FFFCFF",
"f. c white",
/* pixels */
"f.f.a.a.8.a.y.f.6.a.i.e.w.f.i.f.f.f.a.w.i.y.4.d.8.i.f.f.y.f.d.y.f.d.y.d.i.f.q.w.i.i.f.f.f.f.f.f.f.f.",
"f.f.f.f.f.f.f.f.f.f.f.f.f.f.f.f.f.f.f.f.a.q.y.a.q.f.f.d.f.d.d.f.i.9.f.f.f.f.f.f.f.f.f.f.f.f.f.f.f.f.",
"f.f.f.f.f.f.f.f.f.f.f.f.f.f.f.f.f.f.f.f.f.f.a.f.f.d.f.i.i.f.f.s.s.i.f.f.f.f.f.f.f.f.f.f.f.f.f.f.f.f.",
"f.f.f.f.f.f.f.f.f.f.f.f.f.f.f.f.f.f.i.i.r.f.f.f.f.f.f.f.y.i.f.f.d.f.f.f.f.f.f.f.f.f.f.f.f.f.f.f.f.f.",
"f.f.f.f.f.f.f.f.f.f.f.f.f.f.f.f.f.f.y.i.f.f.f.d.i.f.f.f.f.q.a.f.f.d.f.f.f.f.f.f.f.f.f.f.f.f.f.f.f.f.",
"f.f.f.f.f.f.f.f.f.f.f.f.f.f.f.f.f.f.f.d.f.d.u.f.i.8.s.d.f.a.y.i.f.d.f.f.f.f.f.f.f.f.f.f.f.f.f.f.f.f.",
"f.f.f.f.f.f.f.f.f.f.f.f.f.f.f.f.f.f.f.d.s.d.f.f.q.a.i.d.s.f.f.y.i.f.f.f.f.f.f.f.f.f.f.f.f.f.f.f.f.f.",
"f.f.f.f.f.f.f.f.f.f.f.f.f.f.f.f.f.f.d.f.i.i.f.w.a.w.<.9.d.d.f.f.i.d.f.f.f.f.f.f.f.f.f.f.f.f.f.f.f.f.",
"f.f.f.f.f.f.f.f.f.f.f.f.f.f.f.f.f.f.f.i.i.i.r.a.4.Q o.<.i.f.f.f.f.f.f.f.f.f.f.f.f.f.f.f.f.f.f.f.f.f.",
"f.f.f.f.f.f.f.f.f.f.f.f.f.f.f.f.f.f.a.f.a.f.8.y.G   r 6.i.i.i.i.a.u.f.f.f.f.f.f.f.f.f.f.f.f.f.f.f.f.",
"f.f.f.f.f.f.f.f.f.f.f.f.f.f.f.f.f.f.f.<.f.d.u.X.m   + v d.f.a.f.q.f.f.f.f.f.f.f.f.f.f.f.f.f.f.f.f.f.",
"f.f.f.f.f.f.f.f.f.f.f.f.f.f.f.f.f.f.f.i.i.w.p.H X     r ,.f.d.i.i.w.f.f.f.f.f.f.f.f.f.f.f.f.f.f.f.f.",
"f.f.f.f.f.f.f.f.f.f.f.f.f.f.f.f.f.f.u.f.a.a.=.M       O v w.d.w.f.f.f.f.f.f.f.f.f.f.f.f.f.f.f.f.f.f.",
"f.f.f.f.f.f.f.f.f.f.f.f.f.f.f.f.f.f.f.8.a.6.J X . 8     y ,.d.f.d.i.f.f.f.f.f.f.f.f.f.f.f.f.f.f.f.f.",
"f.f.f.f.f.f.f.f.f.f.f.f.f.f.f.f.f.f.a.f.f.X.M   w F     + n a.d.i.e.f.f.f.f.f.f.f.f.f.f.f.f.f.f.f.f.",
"f.f.f.f.f.f.f.f.f.f.f.f.f.f.f.f.f.f.w.f.i.L   . k K       y ,.a.a.8.f.f.f.f.f.f.f.f.f.f.f.f.f.f.f.f.",
"f.f.f.f.f.f.f.f.f.f.f.f.f.f.f.f.f.f.f.9.-.N   w +.K       O n i.e.u.f.f.f.f.f.f.f.f.f.f.f.f.f.f.f.f.",
"f.f.d.f.a.a.f.f.d.f.q.8.d.i.f.0.y.f.f.8.I   . j w.K     .   y %.f.f.y.t.f.i.f.a.u.a.f.f.f.f.f.f.f.f.",
"f.f.d.f.f.f.d.f.w.w.y.f.i.2.*.! A 8 $       q ) f.K             . , 9 W ( :.i.i.a.d.f.f.f.f.f.f.f.f.",
"f.f.a.a.f.t.d.a.4.-.Z -   X                 j d.y.K                 X         @ > / f.f.f.f.f.f.f.f.",
"f.f.a.a.f.f.d.f.4.-.6             ; 0 W ~ :.7.a.q.K                             . k f.f.f.f.f.f.f.f.",
"f.f.f.f.f.f.u.d.f.e.E =   . z &.f.w.e.8.f.f.a.w.q.K                             f ,.f.f.f.f.f.f.f.f.",
"f.f.d.s.a.a.f.d.d.d.a.R <   . x i.a.f.y.w.r.8.d.f.K                           g 7.a.f.f.f.f.f.f.f.f.",
"f.f.d.s.w.a.f.f.d.f.w.i.E 2   . z i.7.d.9.f.q.y.i.K                         d 5.a.6.f.f.f.f.f.f.f.f.",
"f.f.f.f.f.f.f.f.a.e.i.8.a.} 1 . . z 6.f.f.y.w.f.8.K                     . l <.f.d.i.f.f.f.f.f.f.f.f.",
"f.f.f.f.f.f.f.f.f.f.a.w.i.y.] 3     h ,.f.i.f.d.6.K                   + z q.w.d.s.f.f.f.f.f.f.f.f.f.",
"f.f.f.f.f.f.f.f.f.f.d.9.f.a.a.} 3     h 6.r.f.a.7.K                   z i.5.p.q.5.d.f.f.f.f.f.f.f.f.",
"f.f.f.f.f.f.f.f.f.f.d.a.y.d.a.q. .1   r >.f.w.i.i.K                 z 7.f.f.p.5.i.i.f.f.f.f.f.f.f.f.",
"f.f.f.f.f.f.f.f.f.f.d.f.i.7.f.i.-.N   p a.i.a.a.f.J                 c w.d.a.u.y.a.8.f.f.f.f.f.f.f.f.",
"f.f.f.f.f.f.f.f.f.f.f.q.d.i.d.0.| 5   s u.9.a.w.d.K                 j f.e.i.d.y.q.f.f.f.f.f.f.f.f.f.",
"f.f.f.f.f.f.f.f.f.f.a.i.4.i.d.a.Y *   c 5.8.i.a.f.K                 a y.f.f.q.a.i.a.f.f.f.f.f.f.f.f.",
"f.f.f.f.f.f.f.f.f.f.9.w.d.1.8.f.L   & ^ 4.f.f.0.' 4                 r ,.7.w.p.y.d.w.f.f.f.f.f.f.f.f.",
"f.f.f.f.f.f.f.f.f.f.a.p.i.a.i.p.D   : _ i.f.[ B                     q _ <.f.f.p.w.f.f.f.f.f.f.f.f.f.",
"f.f.f.f.f.f.f.f.f.f.f.f.d.e.8.y.V   e ,...B                         ; ^ f.5.d.a.f.f.f.f.f.f.f.f.f.f.",
"f.f.f.f.f.f.f.f.f.f.s.i.i.a.d.=.M   t C o     % l #.` 7               v w.w.f.f.e.i.f.f.f.f.f.f.f.f.",
"f.f.f.f.f.f.f.f.f.f.i.i.5.d.s.{ 2         + i $.r.a.a.3.T 1           z 9.a.d.f.i.d.f.f.f.f.f.f.f.f.",
"f.f.f.f.f.f.f.f.f.f.i.t.y.d.f.U #       u O.p.u.e.i.r.f.i.;.P =       p 7.y.a.a.d.f.f.f.f.f.f.f.f.f.",
"f.f.f.f.f.f.f.f.f.f.a.d.y.f.d.H     t @.9.f.i.4.i.w.i.y.y.f.f.;.P =   r $.a.f.a.a.d.f.f.f.f.f.f.f.f.",
"f.f.f.f.f.f.f.f.f.f.f.f.y.f.d.} A o.5.a.8.u.t.d.f.<.w.f.d.d.p.s.i.-.S b f.a.f.f.a.f.f.f.f.f.f.f.f.f.",
"f.f.f.f.f.f.f.f.f.f.d.y.a.f.f.a.p.<.i.a.u.d.f.i.a.a.i.y.a.e.i.9.q.f.4.f.f.i.w.f.i.a.f.f.f.f.f.f.f.f.",
"f.f.f.f.f.f.f.f.f.f.f.w.q.i.i.u.d.a.d.d.q.w.y.7.d.i.a.f.i.r.a.e.f.a.u.d.p.6.f.i.e.d.f.f.f.f.f.f.f.f.",
"f.f.f.f.f.f.f.f.f.f.f.f.f.f.f.f.f.f.f.f.f.f.f.f.f.f.f.f.f.f.f.f.f.f.f.f.f.f.f.f.f.f.f.f.f.f.f.f.f.f.",
"f.f.f.f.f.f.f.f.f.f.f.f.f.f.f.f.f.f.f.f.f.f.f.f.f.f.f.f.f.f.f.f.f.f.f.f.f.f.f.f.f.f.f.f.f.f.f.f.f.f.",
"f.f.f.f.f.f.f.f.f.f.f.f.f.f.f.f.f.f.f.f.f.f.f.f.f.f.f.f.f.f.f.f.f.f.f.f.f.f.f.f.f.f.f.f.f.f.f.f.f.f.",
"f.f.f.f.f.f.f.f.f.f.f.f.f.f.f.f.f.f.f.f.f.f.f.f.f.f.f.f.f.f.f.f.f.f.f.f.f.f.f.f.f.f.f.f.f.f.f.f.f.f.",
"f.f.f.f.f.f.f.f.f.f.f.f.f.f.f.f.f.f.f.f.f.f.f.f.f.f.f.f.f.f.f.f.f.f.f.f.f.f.f.f.f.f.f.f.f.f.f.f.f.f.",
"f.f.f.f.f.f.f.f.f.f.f.f.f.f.f.f.f.f.f.f.f.f.f.f.f.f.f.f.f.f.f.f.f.f.f.f.f.f.f.f.f.f.f.f.f.f.f.f.f.f.",
"f.f.f.f.f.f.f.f.f.f.f.f.f.f.f.f.f.f.f.f.f.f.f.f.f.f.f.f.f.f.f.f.f.f.f.f.f.f.f.f.f.f.f.f.f.f.f.f.f.f.",
"f.f.f.f.f.f.f.f.f.f.f.f.f.f.f.f.f.f.f.f.f.f.f.f.f.f.f.f.f.f.f.f.f.f.f.f.f.f.f.f.f.f.f.f.f.f.f.f.f.f.",
"f.f.f.f.f.f.f.f.f.f.f.f.f.f.f.f.f.f.i.w.y.a.d.a.d.i.f.f.f.f.f.f.f.f.f.f.f.f.f.f.f.f.f.f.f.f.f.f.f.f."
};
