/* XPM */
static char *_177180477224fc9a07592486b61477eg3xjVtAB1rEsy71E[] = {
/* columns rows colors chars-per-pixel */
"50 50 142 2 ",
"   c white",
".  c #FFFFFA",
"X  c #F4FFFF",
"o  c #F9FFFA",
"O  c #FFFCFF",
"+  c #FBFFF8",
"@  c #FFFCF6",
"#  c #EDFFFF",
"$  c #F8FFFF",
"%  c #FBFFFF",
"&  c #FFFCFA",
"*  c #F5FBFF",
"=  c #FBFFF3",
"-  c #FFF9F7",
";  c #FFFFF5",
":  c #F6FDF9",
">  c #FCFCFE",
",  c #FBFBF9",
"<  c #FFF9FB",
"1  c #FFFFEF",
"2  c #E4D9C3",
"3  c #8790B4",
"4  c #AE4003",
"5  c #010005",
"6  c #01A4EC",
"7  c #FFBE68",
"8  c #230301",
"9  c black",
"0  c #012F7F",
"q  c #BBFCFD",
"w  c #FFF8FF",
"e  c #FFFEE5",
"r  c #030001",
"t  c #01010D",
"y  c #02B4E9",
"u  c #170101",
"i  c #002B8B",
"p  c #C5FDFE",
"a  c #BB4F02",
"s  c #244962",
"d  c #0E0101",
"f  c #01ADF5",
"g  c #FFCC79",
"h  c #04A7D8",
"j  c #8B1E02",
"k  c #01B2FF",
"l  c #FEA341",
"z  c #2DB6FC",
"x  c #060001",
"c  c #FDFCCB",
"v  c #002F94",
"b  c #D2FCFE",
"n  c #FEFED6",
"m  c #F49837",
"M  c #08BFFB",
"N  c #F0FFF9",
"B  c MintCream",
"V  c #EAE5EB",
"C  c #E1C7B5",
"Z  c #B0A687",
"A  c #6E6456",
"S  c #432A20",
"D  c #FFF0A8",
"F  c #810B03",
"G  c #071A20",
"H  c #67718A",
"J  c #A5AFB3",
"K  c #D3E1E0",
"L  c #E2F1FC",
"P  c #FDD39E",
"I  c #5B310C",
"U  c #19170F",
"Y  c #072540",
"T  c #026DB8",
"R  c #FFFCF2",
"E  c #D2B8A5",
"W  c #646563",
"Q  c #411C08",
"!  c #010C70",
"~  c #D4802B",
"^  c #FFF8DE",
"/  c #E29C45",
"(  c #010538",
")  c #78D9FA",
"_  c #F2892B",
"`  c #F7A452",
"'  c #000645",
"]  c #7BC6F8",
"[  c #F5FFF3",
"{  c #EA8A22",
"}  c #000354",
"|  c #CE8D47",
" . c #01144F",
".. c #92EAFD",
"X. c #E38D35",
"o. c #00125F",
"O. c #93D9F9",
"+. c #9FE8FC",
"@. c #F4FDE2",
"#. c #FFB25B",
"$. c #CB5C01",
"%. c #EF891B",
"&. c #010466",
"*. c #83FFFE",
"=. c #D36C04",
"-. c #00022C",
";. c #39CFFD",
":. c #033256",
">. c #93CFEA",
",. c #FFDC8F",
"<. c #370201",
"1. c #E8FEF5",
"2. c #FEFCB9",
"3. c #034888",
"4. c #ADD4F1",
"5. c #6E0105",
"6. c #008AD2",
"7. c #430301",
"8. c #ADE7FC",
"9. c #A62A00",
"0. c #025AA5",
"q. c #012669",
"w. c #97C3DC",
"e. c #FDEBDD",
"r. c #2E0201",
"t. c #010216",
"y. c #046CA5",
"u. c #A04B0F",
"i. c #75BFE3",
"p. c #E6FEFF",
"a. c #FEF5D3",
"s. c #BD7040",
"d. c #82EBFC",
"f. c #63A1D0",
"g. c #DDFDFE",
"h. c #FCDDC4",
"j. c #B56726",
"k. c #010222",
"l. c #1ED3FB",
"z. c #F0E3D2",
"x. c #F5BD7C",
"c. c #6B9BB3",
/* pixels */
"                . . X o   . O + O   + O   o     . @ O # + . $ %       & O * X . % =   + $ - % %     ",
"                                ; .   O O   O     : % o o %   O                                     ",
"                                . > >     . .   O     %                                             ",
"                                  >     . +     O         , . .                                     ",
"                                O     % o         & O       . +                                     ",
"                                O   . o %   O > @ .   < >   >                                       ",
"                                  . +     > O . % : >   O > O                                       ",
"                                O .     O O ; 1 * % $   . .   O                                     ",
"                                        > . 1 2 3 # % , . . .                                       ",
"                                & % & . . . = 4 5 6 o @   %   %                                     ",
"                                  :   %   > 7 8 9 0 q & w   1 >                                     ",
"                                * . . O   e 4 r 9 t y w $ . .                                       ",
"                                    * O * 7 u 9 9 r i p % %   &                                     ",
"                                . w   O e a 9 5 s d t f = % @                                       ",
"                                X . O % g 8 9 r h j r i q w O %                                     ",
"                                @ % % e a 9 5 9 k l d 5 z .   $                                     ",
"                                & X + g u x r 5 k c j 9 v b ;                                       ",
"                % & % O .   < + w % n a 5 d 9 5 k X m d 5 M @   O o N O . w @ B O O     % %   O     ",
"                O $ & . V C Z A S d 9 x 5 9 9 x k   D F 9 9 5 G s H J K L . w + X $   O       >     ",
"                P I U 9 x 9 5 5 r 9 9 5 x 9 9 r k + O m r x 9 x r 5 r 5 t 5 Y T b # % O <   % $     ",
"                l d r r 9 9 r 9 9 5 9 9 r r 9 5 k B % R V E Z W Q x r r 9 x 9 ! b #   O O   % %     ",
"                e ~ x 9 9 5 r 9 9 x 9 9 9 r 9 r k B * %   O @ X X < ^ / d 9 ( ) X % O <             ",
"                % R _ 9 r 5 9 9 9 9 r r r r 9 9 k . w @ , $ + O % & ` d 9 ' ] % O O O   % % > O     ",
"                = % [ { r 9 5 9 9 9 9 9 9 9 9 r k . + : O ; O R < / d r } ) . * > O     % $ > O     ",
"                . > O 1 | d 5 r 9 r 9 9 5 5 9 r k -   $ +   O = / d 5  ...% - . X %                 ",
"                  > O $ [ / 8 r r 9 9 9 9 9 9 9 k = O   .   e X.r r o.O.o . $ %                     ",
"                O [ B w [ < / x r 9 9 9 9 9 9 9 k R % O , = X.r r o.+.% % O ; >                     ",
"                . . [ w   O R / r r 9 9 9 9 9 9 k . & X   @.4 9  .+.: % O o % O                     ",
"                @ % o - % O X #.r r 9 9 9 9 9 9 f O % % . % $.x v b +   R .   O                     ",
"                O B + O . X < m r 9 9 9 9 9 9 9 k w $ $ . & %.9 &.*.B O . O B                       ",
"                % & % B     o =.r 9 9 9 9 9 9 9 k   $ . - [ #.r -.;.$ O . # & %                     ",
"                $ O + w $ R e 4 r 9 9 9 9 9 9 9 :.>.N     N ,.<.9 z w @ 1.O $ @                     ",
"                % $ w     1 2.F r 9 9 9 9 9 9 9 9 5 3.4.O & 2.5.9 6.w . % . w %                     ",
"                O   % O [ O ,.7.r 9 9 9 9 5 9 5 r 9 r r 3.8.e 9.5 0.+ - X O                         ",
"                . X   w X * 7 x 9 9 r 5 r 9 q.w.e.| r.9 9 t.y.u.9 i p O % . . >                     ",
"                O .   O % ; / r 9 9 9 9  .i.p.$ % , a.s.8 5 9 r r } d.> O [ . .                     ",
"                  O % % + R $.5 r 9 ( f.g..   , . X O w h.j.r x x k.l.  O + < .                     ",
"                O % %   $ a.4 9 ( f.g.  > + + . $ . N .   ; z.u.x 5 y O   + O %                     ",
"                  %     %   x.c.b . > w O O   * 1 O O < & - % [ 2 H +.O   o                         ",
"                % .   $ .     # . B ; . X % o . % % & O O & % . 1 w X     % o O                     ",
"                O X .   = w O & %   X % , .   % . O 1 o X o O O % O & . & B $                       ",
"                                                                                                    ",
"                                                                                                    ",
"                                                                                                    ",
"                                                                                                    ",
"                                                                                                    ",
"                                                                                                    ",
"                                                                                                    ",
"                                                                                                    ",
"                                                . O $ O % + $ &                                     "
};
